<mxfile host="app.diagrams.net" modified="2023-10-16T04:29:37.962Z" agent="Mozilla/5.0 (X11; Linux x86_64; rv:102.0) Gecko/20100101 Firefox/102.0" version="22.0.4" etag="yMyyHOrnyoe28CbTiUXX" type="github">
  <diagram name="Page-1" id="YvtSmTz2POqkmOQa6MH6">
    <mxGraphModel>
      <root>
        <mxCell id="0" />
        <mxCell id="1" parent="0" />
      </root>
    </mxGraphModel>
  </diagram>
</mxfile>
